<?xml version="1.0" encoding="UTF-8"?><svg id="Layer_2" xmlns="http://www.w3.org/2000/svg" viewBox="0 0 1920 40"><defs><style>.cls-1,.cls-2,.cls-3,.cls-4,.cls-5,.cls-6,.cls-7{stroke-width:0px;}.cls-1,.cls-8{fill:#333;}.cls-9{letter-spacing:-.02em;}.cls-10{letter-spacing:-.02em;}.cls-11{letter-spacing:0em;}.cls-12{letter-spacing:0em;}.cls-2{fill:#69c;}.cls-13{letter-spacing:-.02em;}.cls-3{fill:#000;}.cls-4{fill:#99c;}.cls-8{font-size:20px;}.cls-8,.cls-14{font-family:DINAlternate-Bold, 'DIN Alternate';font-weight:700;}.cls-5{fill:#f93;}.cls-6,.cls-14{fill:#fff;}.cls-14{font-size:28.63px;}.cls-7{fill:#f99;}</style></defs><g id="Layer_1-2"><rect class="cls-1" x=".5" y=".5" width="1919" height="39"/><path class="cls-3" d="M1919,1v38H1V1h1918M1920,0H0v40h1920V0h0Z"/><text class="cls-14" transform="translate(659.01 28.88)"><tspan x="0" y="0">A </tspan><tspan class="cls-9" x="24.32" y="0">V</tspan><tspan class="cls-12" x="39.72" y="0">isualization System for Soccer Match E</tspan><tspan class="cls-13" x="502.58" y="0">f</tspan><tspan x="510.02" y="0">ficiency</tspan></text><rect class="cls-6" x="10" y="5" width="189" height="30" rx="6" ry="6"/><text class="cls-8" transform="translate(52 27.1)"><tspan x="0" y="0">Win</tspan></text><text class="cls-8" transform="translate(145 27.1)"><tspan x="0" y="0">Loss</tspan></text><circle class="cls-5" cx="30" cy="20" r="10"/><circle class="cls-4" cx="122" cy="20" r="10"/><rect class="cls-6" x="1647" y="5" width="263" height="30" rx="6" ry="6"/><text class="cls-8" transform="translate(1692 27.1)"><tspan x="0" y="0">O</tspan><tspan class="cls-10" x="12.2" y="0">f</tspan><tspan x="17.39" y="0">fensi</tspan><tspan class="cls-11" x="58.09" y="0">v</tspan><tspan x="66.85" y="0">e</tspan></text><text class="cls-8" transform="translate(1815 27.1)"><tspan x="0" y="0">Defensi</tspan><tspan class="cls-11" x="63.29" y="0">v</tspan><tspan x="72.05" y="0">e</tspan></text><circle class="cls-7" cx="1670" cy="20" r="10"/><circle class="cls-2" cx="1792" cy="20" r="10"/></g></svg>